<svg width="128" height="128" viewBox="0 0 128 128" fill="none" xmlns="http://www.w3.org/2000/svg">
<rect width="128" height="128" fill="black"/>
<path d="M71.9991 51.9996H65.9991V75.9996H71.9991V79.9996H55.9991V75.9996H61.9991V51.9996H55.9991V47.9996H71.9991V51.9996Z" fill="white"/>
<path fill-rule="evenodd" clip-rule="evenodd" d="M61.171 22.8278C62.7329 21.2662 65.2652 21.2664 66.8273 22.8278L105.171 61.1715C106.733 62.7335 106.733 65.2657 105.171 66.8278L66.8273 105.172L66.6778 105.313C65.1584 106.686 62.8399 106.686 61.3204 105.313L61.171 105.172L22.8273 66.8278C21.3147 65.3145 21.2674 62.8909 22.6857 61.3209L22.8273 61.1715L61.171 22.8278ZM25.6564 63.9996L63.9991 102.342L102.342 63.9996L63.9991 25.6569L25.6564 63.9996Z" fill="white"/>
</svg>
